<svg width="13" height="15" viewBox="0 0 13 15" fill="none" xmlns="http://www.w3.org/2000/svg">
<path d="M0.0566406 14.905C0.0566406 13.4376 0.688782 12.0302 1.814 10.9926C2.93922 9.95493 4.46534 9.37198 6.05664 9.37198C7.64794 9.37198 9.17406 9.95493 10.2993 10.9926C11.4245 12.0302 12.0566 13.4376 12.0566 14.905H10.5566C10.5566 13.8044 10.0825 12.7489 9.23862 11.9707C8.39471 11.1925 7.25011 10.7552 6.05664 10.7552C4.86317 10.7552 3.71857 11.1925 2.87466 11.9707C2.03075 12.7489 1.55664 13.8044 1.55664 14.905H0.0566406ZM6.05664 8.68035C3.57039 8.68035 1.55664 6.82332 1.55664 4.53057C1.55664 2.23781 3.57039 0.380779 6.05664 0.380779C8.54289 0.380779 10.5566 2.23781 10.5566 4.53057C10.5566 6.82332 8.54289 8.68035 6.05664 8.68035ZM6.05664 7.29709C7.71414 7.29709 9.05664 6.05907 9.05664 4.53057C9.05664 3.00206 7.71414 1.76404 6.05664 1.76404C4.39914 1.76404 3.05664 3.00206 3.05664 4.53057C3.05664 6.05907 4.39914 7.29709 6.05664 7.29709Z" fill="white"/>
</svg>
