<svg width="20" height="20" viewBox="0 0 20 20" fill="none" xmlns="http://www.w3.org/2000/svg">
<path d="M13.6568 5.22907V5.27907H13.7068H15.2687C16.1001 5.27907 16.7806 5.95954 16.7806 6.79098V16.1624C16.7806 16.9938 16.1001 17.6743 15.2687 17.6743H4.33534C3.50391 17.6743 2.82344 16.9938 2.82344 16.1624V6.79098C2.82344 5.95954 3.50391 5.27907 4.33534 5.27907H5.89725H5.94725V5.22907C5.94725 3.07002 7.64296 1.37431 9.80201 1.37431C11.9611 1.37431 13.6568 3.07002 13.6568 5.22907ZM12.1449 5.27907H12.1949V5.22907C12.1949 3.87384 11.1572 2.83622 9.80201 2.83622C8.44678 2.83622 7.40915 3.87384 7.40915 5.22907V5.27907H7.45915H12.1449ZM15.2687 16.2124H15.3187V16.1624V6.79098V6.74098H15.2687H4.33534H4.28534V6.79098V16.1624V16.2124H4.33534H15.2687ZM13.6565 7.62193C13.6305 9.7571 11.9444 11.4267 9.80201 11.4267C7.65965 11.4267 5.9735 9.7571 5.94755 7.62193H7.40962C7.4348 8.9526 8.46349 9.96479 9.80201 9.96479C11.1405 9.96479 12.1692 8.9526 12.1944 7.62193H13.6565Z" fill="white" stroke="#31241B" stroke-width="0.1"/>
</svg>
