<svg width="17" height="17" viewBox="0 0 17 17" fill="none" xmlns="http://www.w3.org/2000/svg">
<path d="M15.0566 15.312L10.39 10.7553M1.05664 6.95814C1.05664 7.65626 1.19747 8.34754 1.47107 8.99251C1.74468 9.63749 2.14572 10.2235 2.65128 10.7172C3.15684 11.2108 3.75704 11.6024 4.41759 11.8695C5.07814 12.1367 5.78611 12.2742 6.50109 12.2742C7.21606 12.2742 7.92403 12.1367 8.58458 11.8695C9.24513 11.6024 9.84533 11.2108 10.3509 10.7172C10.8565 10.2235 11.2575 9.63749 11.5311 8.99251C11.8047 8.34754 11.9455 7.65626 11.9455 6.95814C11.9455 6.26002 11.8047 5.56874 11.5311 4.92377C11.2575 4.27879 10.8565 3.69276 10.3509 3.19911C9.84533 2.70547 9.24513 2.31389 8.58458 2.04673C7.92403 1.77958 7.21606 1.64207 6.50109 1.64207C5.78611 1.64207 5.07814 1.77958 4.41759 2.04673C3.75704 2.31389 3.15684 2.70547 2.65128 3.19911C2.14572 3.69276 1.74468 4.27879 1.47107 4.92377C1.19747 5.56874 1.05664 6.26002 1.05664 6.95814Z" stroke="white" stroke-width="1.5" stroke-linecap="square" stroke-linejoin="round"/>
</svg>
